<svg width="171" height="51" viewBox="0 0 171 51" fill="none" xmlns="http://www.w3.org/2000/svg">
<g clip-path="url(#clip0_9_55)">
<path d="M90.1886 13.4658C90.1886 15.2653 88.6506 16.7144 86.7419 16.7144C84.8332 16.7144 83.2963 15.2653 83.2963 13.4658C83.2963 11.6662 84.7808 10.2172 86.7419 10.2172C88.7047 10.2671 90.1886 11.7166 90.1886 13.4658ZM75.9802 20.0139V20.8138C75.9802 20.8138 74.3374 18.8135 70.8382 18.8135C65.0602 18.8135 60.5532 22.9624 60.5532 28.7101C60.5532 34.4084 65.0072 38.6067 70.8382 38.6067C74.3903 38.6067 75.9802 36.5575 75.9802 36.5575V37.4068C75.9802 37.8068 76.299 38.1059 76.7227 38.1059H81.0163V19.3118H76.7227C76.299 19.3133 75.9802 19.6639 75.9802 20.0139ZM75.9802 32.0591C75.1858 33.1591 73.5948 34.1088 71.6867 34.1088C68.294 34.1088 65.6957 32.1095 65.6957 28.7101C65.6957 25.3112 68.294 23.3119 71.6867 23.3119C73.5424 23.3119 75.2388 24.3116 75.9802 25.3611V32.0591ZM84.1977 19.3133H89.2867V38.1073H84.1977V19.3133ZM160.221 18.813C156.722 18.813 155.078 20.8133 155.078 20.8133V10.2671H149.989V38.1073H154.283C154.707 38.1073 155.025 37.7573 155.025 37.4073V36.558C155.025 36.558 156.669 38.6072 160.167 38.6072C165.946 38.6072 170.452 34.4099 170.452 28.7116C170.452 23.0133 165.946 18.813 160.221 18.813ZM159.372 34.0583C157.41 34.0583 155.873 33.1096 155.078 32.0091V25.3112C155.873 24.3116 157.57 23.262 159.372 23.262C162.765 23.262 165.363 25.2613 165.363 28.6602C165.363 32.0591 162.766 34.0583 159.372 34.0583ZM147.338 26.9615V38.1573H142.248V27.5107C142.248 24.4124 141.188 23.1621 138.327 23.1621C136.79 23.1621 135.199 23.9121 134.19 25.0121V38.1079H129.102V19.3138H133.13C133.554 19.3138 133.873 19.6639 133.873 20.0139V20.8138C135.357 19.3638 137.318 18.8135 139.279 18.8135C141.506 18.8135 143.362 19.4142 144.847 20.6136C146.648 22.0132 147.338 23.8122 147.338 26.9615ZM116.748 18.813C113.25 18.813 111.606 20.8133 111.606 20.8133V10.2671H106.517V38.1073H110.811C111.235 38.1073 111.553 37.7573 111.553 37.4073V36.558C111.553 36.558 113.197 38.6072 116.695 38.6072C122.474 38.6072 126.98 34.4099 126.98 28.7116C127.033 23.0128 122.527 18.813 116.748 18.813ZM115.9 34.0583C113.939 34.0583 112.402 33.1096 111.606 32.0091V25.3112C112.402 24.3116 114.098 23.262 115.9 23.262C119.293 23.262 121.891 25.2613 121.891 28.6602C121.891 32.0591 119.293 34.0583 115.9 34.0583ZM102.117 18.813C103.653 18.813 104.449 19.0637 104.449 19.0637V23.5116C104.449 23.5116 100.208 22.162 97.5577 25.0116V38.1568H92.4676V19.3133H96.7622C97.1864 19.3133 97.5036 19.6634 97.5036 20.0134V20.8133C98.459 19.7632 100.527 18.813 102.117 18.813ZM49.2618 36.4077C48.997 35.808 48.7317 35.1584 48.4669 34.6081C48.0422 33.7088 47.6179 32.8585 47.2477 32.0591L47.1948 32.0091C43.5362 24.5113 39.6139 16.9146 35.4782 9.41774L35.3193 9.11714C34.8843 8.33943 34.4604 7.55626 34.0477 6.76783C33.517 5.86755 32.9874 4.91883 32.139 4.01855C30.4426 2.01926 28.0038 0.91925 25.4066 0.91925C22.7553 0.91925 20.37 2.01927 18.6212 3.91819C17.8257 4.81747 17.2421 5.76719 16.7125 6.66747C16.2987 7.45541 15.8748 8.23856 15.4409 9.01678L15.2815 9.31737C11.1992 16.8142 7.22342 24.4114 3.5654 31.9088L3.51192 32.0081C3.14119 32.809 2.71644 33.6584 2.29222 34.5572C2.02741 35.1074 1.76261 35.7071 1.4978 36.3567C0.808245 38.2057 0.595861 39.9554 0.861726 41.7554C1.44483 45.5043 4.095 48.6521 7.75356 50.0527C9.13214 50.6029 10.5637 50.8526 12.0476 50.8526C12.4719 50.8526 13.0015 50.8027 13.4262 50.7522C15.1761 50.5525 16.9783 50.0032 18.7282 49.0535C20.9017 47.9036 22.9693 46.2548 25.3017 43.8556C27.6341 46.2548 29.7547 47.9036 31.8752 49.0535C33.6256 50.0032 35.4273 50.5525 37.1766 50.7522C37.6009 50.8032 38.1315 50.8526 38.5558 50.8526C40.0403 50.8526 41.5242 50.6029 42.8493 50.0527C46.5608 48.6521 49.158 45.4544 49.7417 41.7554C50.1627 40.0063 49.9509 38.2577 49.2618 36.4077ZM25.3531 39.0066C22.49 35.6077 20.6342 32.4091 19.9987 29.7107C19.7339 28.5608 19.6804 27.5612 19.8398 26.6614C19.9452 25.8615 20.264 25.1614 20.6883 24.5617C21.6956 23.213 23.3919 22.3627 25.3536 22.3627C27.3158 22.3627 29.0651 23.1626 30.0195 24.5617C30.4437 25.1614 30.7615 25.862 30.8685 26.6614C31.0268 27.5617 30.9739 28.6107 30.709 29.7107C30.0709 32.3591 28.2151 35.5583 25.3531 39.0066ZM46.5047 41.356C46.134 43.9549 44.2782 46.2049 41.681 47.2045C40.4089 47.7038 39.0298 47.8541 37.6522 47.7038C36.3272 47.5535 35.001 47.1536 33.6235 46.4046C31.7148 45.404 29.8066 43.8556 27.5796 41.5557C31.0782 37.5077 33.1988 33.8082 33.9942 30.5102C34.3655 28.9603 34.419 27.5611 34.259 26.2609C34.0477 25.0116 33.57 23.8617 32.828 22.862C31.1836 20.6121 28.4264 19.3133 25.3526 19.3133C22.2787 19.3133 19.5215 20.663 17.8781 22.862C17.1362 23.8617 16.6584 25.0116 16.4466 26.2609C16.2348 27.5611 16.2872 29.0102 16.7114 30.5102C17.5064 33.8082 19.6799 37.5571 23.1255 41.6056C20.952 43.905 18.9903 45.4549 17.0816 46.4546C15.703 47.2045 14.3785 47.6045 13.0534 47.7538C11.6224 47.9041 10.2433 47.7039 9.02411 47.2545C6.42689 46.2548 4.57113 44.0049 4.2004 41.4059C4.04152 40.1566 4.14691 38.9073 4.67758 37.5077C4.83594 37.0073 5.1018 36.508 5.36661 35.9083C5.73786 35.1084 6.16102 34.2581 6.58577 33.4087L6.63927 33.3094C10.2968 25.8615 14.2196 18.2642 18.3018 10.8673L18.4607 10.5667C18.8855 9.8177 19.3097 9.01778 19.7334 8.2678C20.1576 7.46788 20.6342 6.71789 21.2179 6.06778C22.3311 4.8694 23.8151 4.21878 25.459 4.21878C27.1029 4.21878 28.5869 4.8694 29.7001 6.06778C30.2838 6.71939 30.7604 7.46938 31.1846 8.2678C31.6094 9.01778 32.0336 9.8177 32.4568 10.5667L32.6162 10.8673C36.6362 18.295 40.5069 25.7937 44.2263 33.3593V33.4092C44.6511 34.2101 45.0218 35.1089 45.446 35.9098C45.7108 36.5085 45.9761 37.0079 46.135 37.5082C46.5582 38.8064 46.7171 40.0567 46.5047 41.356Z" fill="#ACAAB4"/>
</g>
<defs>
<clipPath id="clip0_9_55">
<rect width="169.751" height="49.9333" fill="white" transform="translate(0.723572 0.9198)"/>
</clipPath>
</defs>
</svg>
