<svg width="162" height="47" viewBox="0 0 162 47" fill="none" xmlns="http://www.w3.org/2000/svg">
<g clip-path="url(#clip0_9_59)">
<path fill-rule="evenodd" clip-rule="evenodd" d="M100.457 36.4895C91.0975 43.0434 77.484 46.5352 65.7424 46.5352C49.2927 46.5352 34.5448 40.7871 23.3136 31.2248C22.4628 30.4728 23.2002 29.4521 24.2779 30.043C36.3599 36.7044 51.278 40.6797 66.7067 40.6797C77.087 40.6797 88.545 38.6383 99.0955 34.3944C100.684 33.8034 101.988 35.4151 100.457 36.4895Z" fill="#ACAAB4"/>
<path fill-rule="evenodd" clip-rule="evenodd" d="M104.371 32.2455C103.18 30.7951 96.4295 31.5472 93.4232 31.9232C92.5156 32.0307 92.3454 31.2786 93.1963 30.7414C98.5849 27.1421 107.377 28.2165 108.398 29.3984C109.419 30.5802 108.114 38.9606 103.066 42.936C102.272 43.5269 101.535 43.2046 101.875 42.3988C103.009 39.7127 105.562 33.7497 104.371 32.2455Z" fill="#ACAAB4"/>
<path fill-rule="evenodd" clip-rule="evenodd" d="M93.5933 5.49267V2.00083C93.5933 1.46362 93.9904 1.14129 94.5009 1.14129H110.951C111.461 1.14129 111.915 1.51734 111.915 2.00083V4.95546C111.915 5.43895 111.461 6.0836 110.667 7.15801L102.158 18.6542C105.335 18.6005 108.682 19.0303 111.518 20.5344C112.142 20.8568 112.312 21.394 112.369 21.8775V25.5842C112.369 26.1214 111.801 26.7123 111.177 26.39C106.129 23.8651 99.3791 23.5965 93.8202 26.4437C93.253 26.7123 92.629 26.1751 92.629 25.6379V22.0923C92.629 21.5551 92.6291 20.5882 93.253 19.7286L103.123 6.3522H94.5576C94.0471 6.3522 93.5933 5.97615 93.5933 5.49267ZM33.6372 27.1421H28.6456C28.1918 27.0884 27.7947 26.766 27.738 26.3363V2.05455C27.738 1.57107 28.1918 1.19502 28.7023 1.19502H33.3536C33.8641 1.19502 34.2044 1.57106 34.2611 2.00083V5.17034H34.3746C35.5658 2.10827 37.8914 0.657811 40.9544 0.657811C44.0742 0.657811 46.0595 2.10827 47.4209 5.17034C48.612 2.10827 51.3915 0.657811 54.3411 0.657811C56.4398 0.657811 58.7087 1.46362 60.1268 3.34384C61.715 5.38523 61.3747 8.33987 61.3747 10.9722V26.3363C61.3747 26.8198 60.9209 27.1958 60.4104 27.1958H55.4755C54.965 27.1421 54.568 26.766 54.568 26.3363V13.4433C54.568 12.4226 54.6814 9.84403 54.4545 8.87706C54.0575 7.26544 52.9797 6.78196 51.5049 6.78196C50.3137 6.78196 49.0091 7.53406 48.4986 8.76963C47.9881 10.0052 48.0448 12.0466 48.0448 13.4433V26.3363C48.0448 26.8198 47.591 27.1958 47.0805 27.1958H42.0889C41.5784 27.1421 41.1813 26.766 41.1813 26.3363V13.4433C41.1813 10.7573 41.6351 6.72824 38.1183 6.72824C34.5448 6.72824 34.6582 10.5961 34.6582 13.4433V26.3363C34.6015 26.766 34.2044 27.1421 33.6372 27.1421ZM126.096 0.657811C133.526 0.657811 137.554 6.67452 137.554 14.3566C137.554 21.77 133.129 27.6793 126.096 27.6793C118.835 27.6793 114.864 21.6626 114.864 14.1417C114.808 6.56708 118.835 0.657811 126.096 0.657811ZM126.096 5.65382C122.409 5.65382 122.182 10.435 122.182 13.3896C122.182 16.3442 122.125 22.6833 126.039 22.6833C129.896 22.6833 130.123 17.5798 130.123 14.464C130.123 12.4226 130.009 9.95149 129.385 8.01755C128.818 6.29849 127.684 5.65382 126.096 5.65382ZM147.14 27.1421H142.148C141.638 27.0884 141.241 26.7123 141.241 26.2826V1.9471C141.297 1.51734 141.694 1.14129 142.205 1.14129H146.856C147.31 1.14129 147.65 1.46363 147.764 1.83967V5.54639H147.877C149.295 2.21571 151.224 0.657811 154.684 0.657811C156.896 0.657811 159.108 1.40989 160.526 3.505C161.831 5.43894 161.831 8.7159 161.831 11.0796V26.39C161.774 26.8198 161.377 27.1421 160.867 27.1421H155.875C155.421 27.0884 155.024 26.766 154.968 26.39V13.1747C154.968 10.4887 155.308 6.62081 151.848 6.62081C150.657 6.62081 149.522 7.3729 148.955 8.55475C148.274 10.0589 148.161 11.5094 148.161 13.1747V26.2826C148.104 26.7661 147.65 27.1421 147.14 27.1421ZM80.4903 15.5384C80.4903 17.3649 80.5471 18.9228 79.5828 20.5882C78.7887 21.9312 77.5407 22.737 76.1227 22.737C74.1941 22.737 73.0596 21.3403 73.0596 19.2989C73.0596 15.2698 76.8601 14.5177 80.4903 14.5177V15.5384ZM85.5387 27.0884C85.1983 27.357 84.7446 27.4107 84.3475 27.1958C82.7025 25.9065 82.3622 25.2619 81.4546 24.0263C78.7319 26.6586 76.7466 27.4644 73.2298 27.4644C69.0323 27.4644 65.7424 24.9933 65.7424 20.1047C65.7424 16.2368 67.9546 13.6582 71.0743 12.3689C73.797 11.2408 77.5975 11.0259 80.4903 10.7036V10.1126C80.4903 8.98451 80.6038 7.6415 79.8664 6.67453C79.2424 5.815 78.108 5.43895 77.087 5.43895C75.1584 5.43895 73.4567 6.35221 73.0596 8.28615C72.9462 8.71591 72.6626 9.14567 72.2088 9.14567L67.3873 8.66218C66.9903 8.55474 66.5365 8.28615 66.6499 7.69522C67.7844 2.10827 73.0596 0.442932 77.8244 0.442932C80.2634 0.442932 83.4399 1.03386 85.3685 2.80664C87.8076 4.95546 87.5807 7.85638 87.5807 10.9722V18.3319C87.5807 20.5344 88.545 21.5014 89.4526 22.737C89.7929 23.1668 89.8496 23.704 89.4526 23.9726C88.3748 24.7784 86.5597 26.2826 85.5387 27.0884ZM14.9753 15.5384C14.9753 17.3649 15.0321 18.9228 14.0678 20.5882C13.2737 21.9312 12.0257 22.737 10.6077 22.737C8.67909 22.737 7.54464 21.3403 7.54464 19.2989C7.54464 15.2698 11.3451 14.5177 14.9753 14.5177V15.5384ZM19.967 27.0884C19.6266 27.357 19.1728 27.4107 18.7758 27.1958C17.1308 25.9065 16.7905 25.2619 15.8829 24.0263C13.1602 26.6586 11.1749 27.4644 7.65808 27.4644C3.46058 27.4644 0.170654 24.9933 0.170654 20.1047C0.170654 16.2368 2.38285 13.6582 5.50261 12.3689C8.22531 11.2408 12.0257 11.0259 14.9186 10.7036V10.1126C14.9186 8.98451 15.0321 7.6415 14.2947 6.67453C13.6707 5.815 12.5363 5.43895 11.5152 5.43895C9.58666 5.43895 7.88497 6.35221 7.48791 8.28615C7.37446 8.71591 7.09085 9.14567 6.63707 9.14567L1.81562 8.66218C1.41856 8.55474 0.964779 8.28615 1.07822 7.69522C2.21268 2.10827 7.48792 0.442932 12.2526 0.442932C14.6917 0.442932 17.8682 1.03386 19.7968 2.80664C22.2359 4.95546 22.009 7.85638 22.009 10.9722V18.3319C22.009 20.5344 22.9733 21.5014 23.8808 22.737C24.2212 23.1668 24.2779 23.704 23.8808 23.9726C22.8031 24.7784 20.988 26.2826 19.967 27.0884Z" fill="#ACAAB4"/>
</g>
<defs>
<clipPath id="clip0_9_59">
<rect width="161.667" height="46.0923" fill="white" transform="matrix(-1 0 0 -1 161.834 46.5352)"/>
</clipPath>
</defs>
</svg>
