<svg width="204" height="40" viewBox="0 0 204 40" fill="none" xmlns="http://www.w3.org/2000/svg">
<path d="M105.28 19.3434C103.6 19.3434 102.388 19.8689 101.16 20.4042V32.5178C102.337 32.6247 103.011 32.6247 104.127 32.6247C108.159 32.6247 108.712 30.8632 108.712 28.4039V22.6184C108.712 20.8021 108.08 19.3434 105.28 19.3434ZM78.498 18.6823C75.7001 18.6823 75.0615 20.1473 75.0615 21.9618V22.9812H81.9307V21.9618C81.9307 20.1473 81.2922 18.6823 78.498 18.6823ZM26.6168 31.2908C26.6168 32.7262 27.3268 33.4717 28.8939 33.4717C30.575 33.4717 31.5704 32.9489 32.7975 32.4118V29.5383H29.1218C27.3815 29.5383 26.6168 29.8473 26.6168 31.2908ZM131.331 19.3434C128.529 19.3434 127.558 20.8021 127.558 22.6184V29.2464C127.558 31.0671 128.529 32.5304 131.331 32.5304C134.126 32.5304 135.105 31.0671 135.105 29.2464V22.6184C135.104 20.8021 134.126 19.3434 131.331 19.3434ZM12.8822 38.7228H4.64375V19.7036H0.527344V13.1501H4.64469V9.21402C4.64469 3.86684 6.968 0.687988 13.5716 0.687988H19.0695V7.2433H15.6331C13.0621 7.2433 12.8926 8.15949 12.8926 9.86883L12.8822 13.1492H19.1072L18.3792 19.7027H12.8822V38.7228ZM41.0378 38.7722H34.1715L33.8749 37.1158C30.7398 38.7722 27.9418 39.0408 26.096 39.0408C21.0604 39.0408 18.3802 35.8323 18.3802 31.395C18.3802 26.1601 21.5077 24.2918 27.1027 24.2918H32.7975V23.16C32.7975 20.4877 32.4764 19.7036 28.1678 19.7036H21.1235L21.8119 13.1501H29.5117C38.965 13.1501 41.0378 15.9984 41.0378 23.213V38.7722ZM64.3868 20.1841C60.114 19.4853 58.8869 19.3317 56.8311 19.3317C53.1384 19.3317 52.0225 20.1087 52.0225 23.0998V28.7578C52.0225 31.7489 53.1384 32.5295 56.8311 32.5295C58.8869 32.5295 60.114 32.3732 64.3868 31.6717V38.0644C60.6442 38.8647 58.206 39.0749 56.1455 39.0749C47.3005 39.0749 43.7849 34.6385 43.7849 28.2296V23.6388C43.7849 17.2245 47.3005 12.78 56.1455 12.78C58.206 12.78 60.6442 12.9911 64.3868 13.795V20.1841ZM90.1682 28.2296H75.0606V28.7578C75.0606 31.7489 76.1775 32.5295 79.8692 32.5295C83.1879 32.5295 85.2137 32.3732 89.4789 31.6717V38.0644C85.3653 38.8647 83.2218 39.0749 79.1864 39.0749C70.3405 39.0749 66.8231 34.6385 66.8231 28.2296V22.9803C66.8231 17.3727 69.4327 12.78 78.4971 12.78C87.5614 12.78 90.1682 17.3197 90.1682 22.9803V28.2296ZM116.949 28.3509C116.949 34.5451 115.093 39.0632 103.848 39.0632C99.7873 39.0632 97.4056 38.7228 92.9238 38.0653V2.65692L101.159 1.34639V13.7321C102.939 13.1016 105.243 12.7809 107.339 12.7809C115.576 12.7809 116.948 16.3029 116.948 21.9626V28.3509H116.949ZM143.349 28.4856C143.349 33.8292 141.036 39.012 131.359 39.012C121.676 39.012 119.32 33.8292 119.32 28.4856V23.3262C119.32 17.9799 121.676 12.7962 131.359 12.7962C141.036 12.7962 143.349 17.9799 143.349 23.3262V28.4856ZM169.731 28.4856C169.731 33.8292 167.416 39.012 157.74 39.012C148.058 39.012 145.702 33.8292 145.702 28.4856V23.3262C145.702 17.9799 148.058 12.7962 157.74 12.7962C167.416 12.7962 169.731 17.9799 169.731 23.3262V28.4856ZM196.806 38.7228H187.879L180.329 26.7017V38.7228H172.09V2.65602L180.329 1.3455V24.5639L187.879 13.1501H196.806L188.564 25.6059L196.806 38.7228ZM157.712 19.3434C154.914 19.3434 153.943 20.8021 153.943 22.6184V29.2464C153.943 31.0671 154.914 32.5304 157.712 32.5304C160.506 32.5304 161.495 31.0671 161.495 29.2464V22.6184C161.495 20.8021 160.506 19.3434 157.712 19.3434ZM201.508 34.237C202.895 34.237 204 35.3158 204 36.6631C204 38.0311 202.894 39.0982 201.498 39.0982C200.108 39.0982 198.98 38.0311 198.98 36.6631C198.98 35.3158 200.108 34.237 201.498 34.237H201.508ZM201.498 34.6143C200.38 34.6143 199.465 35.5314 199.465 36.6631C199.465 37.8156 200.381 38.721 201.508 38.721C202.636 38.7318 203.538 37.8156 203.538 36.6739C203.538 35.5323 202.636 34.6143 201.508 34.6143H201.498ZM201.024 38.0752H200.572V35.3679C200.809 35.3364 201.035 35.305 201.374 35.305C201.804 35.305 202.084 35.3912 202.257 35.5089C202.423 35.6284 202.513 35.8107 202.513 36.0685C202.513 36.426 202.266 36.6407 201.962 36.7278V36.7485C202.21 36.7925 202.378 37.0063 202.436 37.4042C202.502 37.8255 202.57 37.9862 202.615 38.0743H202.141C202.074 37.9862 202.005 37.7392 201.949 37.3826C201.883 37.0386 201.7 36.9093 201.339 36.9093H201.025V38.0752H201.024ZM201.024 36.5769H201.352C201.723 36.5769 202.038 36.4467 202.038 36.1116C202.038 35.8745 201.859 35.6382 201.352 35.6382C201.204 35.6382 201.101 35.649 201.024 35.6589V36.5769Z" fill="#ACAAB4"/>
</svg>
