<svg width="178" height="56" viewBox="0 0 178 56" fill="none" xmlns="http://www.w3.org/2000/svg">
<g clip-path="url(#clip0_9_46)">
<path d="M21.8099 0.925781H23.3848C28.8521 1.03825 34.2304 3.11896 38.0932 6.80237C36.6669 8.18014 35.2109 9.50167 33.8144 10.8794C31.6452 9.02367 29.0304 7.58967 26.1779 7.08355C21.9585 6.24002 17.4122 6.9992 13.8763 9.27673C10.0135 11.6667 7.39863 15.7157 6.83406 20.0458C6.21007 24.3197 7.48777 28.8185 10.4295 32.1364C13.2523 35.3699 17.5608 37.3944 22.0179 37.535C26.1779 37.7599 30.5161 36.5509 33.5469 33.7953C35.9241 31.8552 37.0235 28.9029 37.3801 26.0349C32.4475 26.0349 27.515 26.063 22.5825 26.0349V20.2426H43.3526C44.4223 26.4566 42.8771 33.4579 37.8852 37.9005C34.5572 41.0497 29.9516 42.9055 25.2567 43.271C20.7105 43.6928 16.0157 42.8773 11.9746 40.7966C7.1312 38.3504 3.26838 34.2171 1.36669 29.3527C-0.416154 24.882 -0.445868 19.8209 1.21812 15.322C2.73353 11.2168 5.6455 7.58967 9.38947 5.05908C12.9849 2.55661 17.3528 1.17884 21.8099 0.925781Z" fill="#ACAAB4"/>
<path d="M140.963 2.38678H147.322V42.5388C145.212 42.5388 143.073 42.5669 140.963 42.5107C140.993 29.1548 140.963 15.7708 140.963 2.38678Z" fill="#ACAAB4"/>
<path d="M57.4966 16.305C61.4188 15.6021 65.6679 16.3894 68.9068 18.6107C71.8484 20.5789 73.8987 23.6719 74.5227 27.046C75.325 30.9543 74.3147 35.2282 71.6405 38.3212C68.7582 41.7796 64.0337 43.6354 59.428 43.3542C55.2086 43.1293 51.1081 41.1329 48.6121 37.8713C45.7893 34.2722 45.1058 29.3235 46.651 25.1059C48.1961 20.5789 52.5641 17.1204 57.4966 16.305ZM58.388 21.6474C56.7834 22.041 55.2977 22.9127 54.228 24.1499C51.3458 27.4115 51.5241 32.7257 54.7035 35.7624C56.516 37.5057 59.2497 38.3212 61.7754 37.8432C64.1228 37.4495 66.1731 35.9593 67.3022 33.991C69.2633 30.645 68.6988 26.0337 65.6977 23.4188C63.7662 21.7317 60.9434 21.0288 58.388 21.6474Z" fill="#ACAAB4"/>
<path d="M88.9934 16.305C93.4802 15.4896 98.383 16.6706 101.741 19.651C107.208 24.2904 107.802 32.9788 103.137 38.3212C100.314 41.6953 95.7385 43.551 91.222 43.3542C86.9134 43.2417 82.6644 41.2173 80.109 37.8713C77.2267 34.1879 76.6027 29.1267 78.237 24.8247C79.8712 20.4383 84.15 17.0923 88.9934 16.305ZM89.8848 21.6474C88.2803 22.041 86.7946 22.9127 85.7249 24.1217C82.8723 27.3271 82.9912 32.557 86.0517 35.6219C87.8643 37.4495 90.6871 38.3493 93.302 37.8432C95.6196 37.4214 97.6996 35.9593 98.8288 33.991C100.76 30.6169 100.196 26.0056 97.1648 23.3907C95.2334 21.7036 92.4105 21.0288 89.8848 21.6474Z" fill="#ACAAB4"/>
<path d="M115.706 17.9359C119.123 15.9114 123.67 15.349 127.354 17.0923C128.513 17.5703 129.464 18.3857 130.385 19.2012C130.415 18.442 130.385 17.6547 130.415 16.8674C132.406 16.8955 134.396 16.8674 136.417 16.8955V41.6953C136.387 45.4349 135.377 49.3995 132.524 52.1269C129.404 55.1355 124.621 56.0634 120.312 55.4448C115.706 54.7981 111.695 51.6208 109.912 47.6C111.695 46.7846 113.567 46.1379 115.409 45.3787C116.449 47.6843 118.559 49.6526 121.203 50.1025C123.848 50.5523 126.909 49.9338 128.632 47.8531C130.474 45.7161 130.474 42.7919 130.385 40.1769C129.018 41.4422 127.443 42.5669 125.542 42.9887C121.411 44.0853 116.865 42.7356 113.686 40.0926C110.477 37.4495 108.575 33.3725 108.753 29.3235C108.842 24.7403 111.576 20.3259 115.706 17.9359ZM121.857 21.5349C120.045 21.8161 118.351 22.7721 117.192 24.0936C114.399 27.2428 114.399 32.2759 117.222 35.3688C118.826 37.1965 121.411 38.2087 123.907 37.9556C126.255 37.7307 128.424 36.3248 129.583 34.3847C131.544 31.0949 131.217 26.6242 128.572 23.7562C126.938 21.9848 124.323 21.1132 121.857 21.5349Z" fill="#ACAAB4"/>
<path d="M154.959 19.3698C158.524 16.2207 164.021 15.1522 168.597 16.8111C172.936 18.3576 175.699 22.266 177.095 26.2868C170.648 28.8174 164.229 31.3199 157.781 33.8505C158.673 35.4532 160.04 36.9153 161.882 37.5058C164.467 38.3774 167.557 38.0681 169.726 36.4373C170.588 35.8187 171.272 35.0033 171.925 34.216C173.559 35.2563 175.194 36.2686 176.828 37.3089C174.51 40.5987 170.618 42.9043 166.428 43.2699C161.793 43.8041 156.86 42.1171 153.859 38.6867C148.927 33.2881 149.402 24.2342 154.959 19.3698ZM158.138 24.5716C157.128 25.9494 156.712 27.6364 156.741 29.2954C161.05 27.6083 165.358 25.9213 169.667 24.2061C168.954 22.6315 167.23 21.6755 165.477 21.4224C162.654 20.9444 159.713 22.3784 158.138 24.5716Z" fill="#ACAAB4"/>
</g>
<defs>
<clipPath id="clip0_9_46">
<rect width="177.095" height="54.6985" fill="white" transform="translate(0 0.9198)"/>
</clipPath>
</defs>
</svg>
