<svg width="49" height="49" viewBox="0 0 49 49" fill="none" xmlns="http://www.w3.org/2000/svg">
<rect width="49" height="49" rx="10" fill="#C2F578"/>
<rect x="33.6592" y="7.15674" width="4.19624" height="8.90237" rx="2.09812" transform="rotate(43 33.6592 7.15674)" fill="black"/>
<rect x="39.0698" y="12" width="4.2" height="8.9" rx="2.1" transform="rotate(43 39.0698 12)" fill="black"/>
<path d="M35.2804 26.7985C36.1237 24.8119 35.1976 22.5198 33.211 21.6765C31.2244 20.8332 28.9323 21.7593 28.089 23.7459C27.3945 25.382 27.901 27.2254 29.2082 28.2948C28.874 29.007 28.4756 29.4957 28.0097 29.7435C26.9513 30.3127 25.3665 29.8097 23.69 29.2731C22.3729 28.852 21.007 28.4207 19.7134 28.4816L22.4607 22.0093C24.1161 22.1709 25.7504 21.2574 26.4334 19.6483C27.2767 17.6617 26.3506 15.3696 24.364 14.5263C22.3774 13.683 20.0853 14.6091 19.242 16.5957C18.559 18.2048 19.0371 20.015 20.3033 21.0935L16.5009 30.0514C14.8436 29.8943 13.2093 30.8078 12.5263 32.4169C11.683 34.4035 12.6091 36.6956 14.5957 37.5389C16.5824 38.3822 18.8745 37.4561 19.7177 35.4695C20.3664 33.9413 19.9687 32.2289 18.8397 31.1396C19.0783 30.9651 19.3773 30.848 19.7651 30.8216C20.6497 30.7621 21.7794 31.125 22.9803 31.5074C24.9514 32.1372 27.1857 32.8469 29.121 31.8118C30.0822 31.2969 30.8287 30.4255 31.3873 29.1721C33.0136 29.2895 34.6088 28.3806 35.2804 26.7985ZM23.143 17.4029C23.5385 17.5708 23.7247 18.0317 23.5569 18.4273C23.389 18.8228 22.928 19.0091 22.5324 18.8412C22.1369 18.6733 21.9507 18.2123 22.1186 17.8168C22.2865 17.4212 22.7474 17.235 23.143 17.4029ZM15.8168 34.6623C15.4212 34.4944 15.235 34.0335 15.4029 33.6379C15.5708 33.2424 16.0317 33.0562 16.4273 33.224C16.8228 33.3919 17.0091 33.8529 16.8412 34.2485C16.6733 34.644 16.2123 34.8302 15.8168 34.6623ZM31.99 24.5531C32.3855 24.721 32.5717 25.1819 32.4038 25.5775C32.2359 25.973 31.775 26.1593 31.3794 25.9914C30.9839 25.8235 30.7977 25.3625 30.9656 24.967C31.1334 24.5714 31.5944 24.3852 31.99 24.5531Z" fill="black"/>
</svg>
