<svg width="74" height="74" viewBox="0 0 74 74" fill="none" xmlns="http://www.w3.org/2000/svg">
<path d="M27.2357 13.8991C24.4948 15.2181 22.3106 17.6526 21.0687 20.3948C20.5026 21.6666 20.0959 22.9809 19.9815 24.373C19.8617 25.6783 20.0874 27.0755 20.4015 28.3541C20.5523 28.9632 20.7634 29.5599 20.9815 30.1301C21.2705 30.8614 21.5596 31.5927 21.9159 32.285C22.6161 33.6093 23.7873 34.6607 25.0221 35.473C26.3295 36.3331 27.7874 36.9486 29.254 37.4243C30.8801 37.9424 32.6212 38.3489 34.3268 38.4614C36.0925 38.5614 37.9059 38.162 39.2512 36.9553C40.4143 35.8992 40.9448 34.3333 40.5278 32.7998C40.1552 31.4204 39.1327 30.2379 37.9299 29.5194C36.6012 28.7391 35.0497 28.5822 33.5569 28.9531C30.4173 29.7393 27.9269 32.5759 26.6302 35.4173C25.9544 36.8876 25.516 38.5348 25.5912 40.1765C25.6913 41.9387 26.4076 43.5234 27.5948 44.8351C28.8742 46.2282 30.4917 47.3131 32.0365 48.3501C33.7001 49.4756 35.4114 50.5285 37.1846 51.4557C40.6975 53.3294 44.4157 54.8595 48.2328 56.0176C49.1822 56.2987 50.1121 56.5462 51.0757 56.7741C51.9329 56.9738 52.2865 55.6454 51.4292 55.4457C44.2132 53.696 37.3719 50.5382 31.3554 46.2058C30.0426 45.2589 28.6376 44.2307 27.7851 42.8373C27.03 41.6121 26.8185 40.1618 27.0197 38.7643C27.2421 37.2872 27.817 35.8754 28.6027 34.6335C29.3477 33.4377 30.3052 32.2984 31.4648 31.469C32.5908 30.6591 33.9064 30.0988 35.3197 30.1335C36.4797 30.1577 37.617 30.8018 38.4109 31.6674C39.1516 32.5189 39.5418 33.6185 39.2058 34.6671C38.7726 35.9744 37.4075 36.7207 36.1165 36.9746C34.4643 37.303 32.6771 36.8559 31.0689 36.4848C29.7599 36.1649 28.4598 35.7051 27.2215 35.1195C26.0169 34.5144 24.8477 33.7765 23.9227 32.7621C23.0438 31.7885 22.5898 30.5012 22.1145 29.2936C21.6783 28.1533 21.4563 26.9562 21.3547 25.7342C21.232 24.592 21.4139 23.5877 21.7374 22.4789C22.4747 20.0292 24.0639 17.6924 26.1547 16.1435C26.7212 15.7253 27.2931 15.3938 27.9181 15.0765C28.2474 14.9081 28.3411 14.4493 28.1656 14.1466C27.9706 13.8102 27.565 13.7307 27.2357 13.8991Z" fill="black"/>
<path d="M41.6095 45.9473C44.2105 48.1474 46.6149 50.5512 48.8637 53.1128C49.4077 53.7412 49.9712 54.4033 50.4816 55.0512C50.6712 55.3008 50.9405 55.5717 51.0558 55.8868C51.1391 56.1082 51.0719 56.1472 50.8505 56.2305C50.5283 56.3724 50.1936 56.454 49.8589 56.5356C49.4569 56.6563 49.0355 56.7433 48.614 56.8303C47.8243 57.0184 47.0221 57.1463 46.2003 57.2406C44.3834 57.4398 42.5291 57.4585 40.7244 57.2911C40.3648 57.2524 40.0321 57.6475 40.0535 57.9946C40.0608 58.3948 40.3638 58.6462 40.7569 58.6654C42.5351 58.8257 44.3292 58.8195 46.1196 58.6132C47.0281 58.5135 47.9436 58.3873 48.8202 58.1938C49.6365 58.0128 50.506 57.8459 51.2709 57.5373C52.1297 57.1969 52.6677 56.4581 52.4016 55.5337C52.1408 54.6962 51.4179 53.9917 50.881 53.3367C49.6954 51.9116 48.4426 50.5255 47.142 49.2121C45.6837 47.7429 44.1847 46.3197 42.6043 44.9887C42.3279 44.7444 41.9082 44.7181 41.6373 44.9874C41.347 45.2231 41.326 45.7296 41.6095 45.9473Z" fill="black"/>
</svg>
